<svg xmlns="http://www.w3.org/2000/svg" width="271.881" height="205.1" viewBox="0 0 271.881 205.1">
  <g id="Group_204" data-name="Group 204" transform="translate(-260.529 -506.421)">
    <path id="Path_177" data-name="Path 177" d="M329.741,523.929l7.164,12.415a1.4,1.4,0,0,1-2.431,1.4l-7.164-12.416,1.013-.6.554-.317.864-.482Zm74.6-17.291-.393,7.55a.742.742,0,0,1-1.481-.069l.393-7.557,1.481.076Zm7.092.6-.792,7.517a.741.741,0,0,1-1.474-.148l.792-7.524,1.474.155Zm7.042.966-1.178,7.468a.745.745,0,0,1-1.471-.228l1.187-7.471,1.461.231Zm6.99,1.333-1.57,7.4a.742.742,0,0,1-1.451-.3l1.573-7.405,1.448.307Zm6.914,1.7-1.953,7.306a.743.743,0,0,1-1.435-.383l1.956-7.306,1.432.383Zm6.815,2.058-2.339,7.191a.74.74,0,0,1-1.408-.452l2.339-7.2,1.408.458Zm6.7,2.408-2.715,7.062a.741.741,0,0,1-1.385-.525l2.715-7.065,1.385.528Zm6.557,2.761-3.074,6.91a.743.743,0,0,1-1.359-.6l3.081-6.91,1.352.6Zm6.4,3.1L455.41,528.3a.744.744,0,0,1-1.326-.673l3.44-6.739,1.319.673Zm12.28,7.174-4.116,6.346a.744.744,0,0,1-1.25-.8l4.123-6.346,1.243.8Zm5.842,4.067-1.2-.874-4.45,6.122a.742.742,0,0,0,1.2.867l4.443-6.115Zm5.621,4.361-4.756,5.875a.743.743,0,0,1-1.158-.93l4.766-5.878,1.148.934Zm5.383,4.648-1.1-.99-5.063,5.624a.742.742,0,0,0,1.108.986l5.057-5.62Zm5.136,4.928-5.347,5.35a.742.742,0,0,1-1.049-1.049l5.353-5.347,1.042,1.046Zm4.872,5.189-.993-1.1-5.624,5.063a.743.743,0,0,0,1,1.1l5.621-5.063Zm4.591,5.432-5.875,4.76a.742.742,0,0,1-.94-1.148l5.881-4.76.933,1.148Zm4.3,5.67-.871-1.2-6.119,4.446a.742.742,0,0,0,.874,1.2l6.115-4.446Zm4,5.884-6.34,4.12a.741.741,0,0,1-.811-1.24l6.346-4.12.8,1.24Zm7.042,12.359-6.732,3.434a.741.741,0,0,1-.679-1.316l6.739-3.437.673,1.319Zm3.028,6.439-6.907,3.077a.742.742,0,0,1-.607-1.352l6.914-3.078.6,1.352Zm2.658,6.567L516.541,597a.743.743,0,0,1-.541-1.382l7.069-2.711.528,1.379Zm2.339,6.722-7.191,2.339a.743.743,0,0,1-.462-1.412l7.194-2.339.459,1.412ZM275.032,703.4l6.739-3.433a.74.74,0,0,1,.676,1.316l-6.739,3.434-.676-1.316ZM272,696.958l6.907-3.074a.739.739,0,0,1,.6,1.349l-6.907,3.077-.6-1.352Zm-2.688-6.59,7.062-2.708a.738.738,0,0,1,.528,1.379l-7.055,2.711-.534-1.382Zm-2.362-6.683,7.187-2.339a.741.741,0,0,1,.459,1.408l-7.191,2.339-.455-1.408Zm-1.986-6.834,7.3-1.959a.74.74,0,0,1,.386,1.428l-7.306,1.956-.379-1.425Zm-1.623-6.934,7.4-1.57a.739.739,0,0,1,.31,1.445l-7.4,1.573-.31-1.448Zm-1.257-7.006,7.468-1.181a.739.739,0,0,1,.231,1.458l-7.474,1.187-.224-1.464Zm-.9-7.059,7.521-.8a.742.742,0,0,1,.162,1.474l-7.527.788-.155-1.468Zm-.515-7.1,7.55-.4a.739.739,0,0,1,.079,1.474l-7.55.4-.079-1.474Zm-.148-7.115h.02l.013-.693H274.9a1.4,1.4,0,0,1,0,2.807H260.562l-.007-.636h-.026v-1.478Zm.228-7.115,7.55.392a.74.74,0,0,1-.079,1.478l-7.55-.392.079-1.478Zm.591-7.095,7.521.792a.74.74,0,0,1-.148,1.471l-7.527-.788.155-1.474Zm.966-7.052,7.474,1.184a.738.738,0,0,1-.231,1.458l-7.468-1.181.224-1.461Zm1.342-6.989,7.4,1.57a.741.741,0,0,1-.31,1.448l-7.4-1.573.31-1.445Zm1.692-6.914,7.306,1.956a.739.739,0,0,1-.379,1.428l-7.306-1.956.379-1.428Zm2.062-6.815,7.191,2.335a.74.74,0,0,1-.452,1.408l-7.194-2.335.455-1.408Zm2.418-6.7,7.052,2.708a.74.74,0,0,1-.528,1.382l-7.062-2.711.538-1.379Zm2.758-6.561,6.9,3.074a.74.74,0,0,1-.6,1.352l-6.907-3.077.6-1.349Zm3.1-6.409,6.739,3.434a.739.739,0,0,1-.67,1.316l-6.739-3.43.67-1.319Zm7.2-12.3,6.343,4.12a.74.74,0,0,1-.8,1.24l-6.34-4.117.8-1.244Zm4.064-5.842-.871,1.2,6.122,4.443a.74.74,0,0,0,.867-1.2l-6.119-4.443Zm4.361-5.624,5.881,4.76a.74.74,0,0,1-.934,1.148l-5.875-4.756.927-1.151Zm4.651-5.383-.983,1.1L300.6,557a.742.742,0,0,0,.993-1.1l-5.627-5.057Zm4.931-5.136,5.347,5.344a.741.741,0,0,1-1.046,1.049l-5.347-5.347,1.046-1.046Zm5.185-4.872-1.1.99,5.057,5.617a.74.74,0,0,0,1.1-.986l-5.063-5.621Zm5.436-4.591,4.763,5.875a.739.739,0,0,1-1.148.93l-4.76-5.875,1.145-.93Zm5.67-4.3-1.191.874,4.443,6.112a.737.737,0,0,0,1.194-.864l-4.446-6.122Zm5.888-4-1.237.8,4.117,6.343a.738.738,0,0,0,1.237-.8l-4.117-6.343Zm12.363-7.049-1.319.676,3.434,6.736a.741.741,0,0,0,1.319-.673l-3.434-6.739Zm6.435-3.025,3.081,6.907a.74.74,0,0,1-1.352.6l-3.074-6.907,1.346-.6Zm6.59-2.688,2.715,7.059a.739.739,0,0,1-1.379.531l-2.715-7.062,1.379-.528Zm6.716-2.339,2.339,7.194a.738.738,0,0,1-1.405.452l-2.339-7.187,1.405-.459Zm6.835-1.982,1.959,7.3a.742.742,0,0,1-1.432.386l-1.959-7.3,1.432-.383Zm6.93-1.626,1.573,7.4a.74.74,0,0,1-1.448.3l-1.573-7.4,1.448-.307Zm7-1.257,1.187,7.468a.741.741,0,0,1-1.465.228l-1.178-7.468,1.455-.228Zm7.069-.894.792,7.521a.742.742,0,0,1-1.474.155l-.785-7.52,1.468-.155Zm7.1-.518.4,7.55a.74.74,0,0,1-1.478.076l-.392-7.55,1.474-.076Zm7.778-.142v14.335a1.4,1.4,0,0,1-2.8,0V506.421ZM279.475,573.169l-.6,1.016-.115.188-.683,1.224,12.412,7.168a1.4,1.4,0,0,0,1.4-2.428l-12.409-7.168Zm-1.4,135.924.785,1.4h0c.2.346.412.686.617,1.032l12.409-7.164a1.4,1.4,0,0,0-1.4-2.431l-12.412,7.168ZM514.9,575.6l-1.4-2.428-12.409,7.168a1.4,1.4,0,0,0,1.4,2.428L514.9,575.6Zm-49.237-50.262-2.431-1.405-7.164,12.415a1.4,1.4,0,0,0,2.431,1.4Z" transform="translate(0 0)" fill="#fff"/>
    <path id="Path_178" data-name="Path 178" d="M360.772,538.164l-7.3,1.959a.744.744,0,0,1-.393-1.435l7.31-1.956.383,1.432Zm1.623,6.927-7.4,1.57a.742.742,0,0,1-.317-1.448l7.4-1.573.31,1.451Zm1.257,7-7.468,1.184a.742.742,0,0,1-.238-1.464l7.471-1.184.234,1.465Zm.887,7.056-7.517.792a.742.742,0,0,1-.162-1.474l7.524-.788.155,1.471Zm.521,7.1-7.55.4a.744.744,0,0,1-.083-1.484l7.557-.392.076,1.481Zm-.076,14.22-7.55-.392a.742.742,0,0,1,.069-1.481l7.557.4-.076,1.478Zm-.6,7.092-7.517-.792a.743.743,0,0,1,.148-1.478l7.53.792-.162,1.478Zm-.966,7.042-7.464-1.178a.744.744,0,0,1,.231-1.468l7.474,1.184-.241,1.461Zm-1.333,6.986-7.4-1.567a.744.744,0,0,1,.3-1.455l7.4,1.577-.31,1.445Zm-1.7,6.91-7.3-1.956a.743.743,0,0,1,.379-1.435l7.306,1.963-.383,1.428Zm-2.062,6.808-7.187-2.332a.743.743,0,0,1,.449-1.415l7.2,2.339-.459,1.408ZM355.92,622l-7.062-2.7a.744.744,0,0,1,.531-1.389l7.065,2.711L355.92,622Zm-2.758,6.558-6.907-3.071a.744.744,0,0,1,.594-1.362l6.92,3.081-.607,1.353Zm-3.1,6.406-6.732-3.43A.742.742,0,0,1,344,630.2l6.746,3.434-.676,1.323Zm-3.717,6.891,1.4-2.428-12.412-7.168a1.4,1.4,0,0,0-1.4,2.431l12.409,7.164Zm18.913-67.771H350.926a1.4,1.4,0,0,1,0-2.807h14.335Z" transform="translate(167.149 69.672)" fill="#fff"/>
  </g>
</svg>
