<svg xmlns="http://www.w3.org/2000/svg" width="16.256" height="16.256" viewBox="0 0 16.256 16.256">
  <path style="fill:#ffb217;" id="Icon_open-sun" data-name="Icon open-sun" d="M8.128,0A1.006,1.006,0,0,0,7.112,1.016a1.016,1.016,0,0,0,2.032,0A1.006,1.006,0,0,0,8.128,0ZM3.048,2.032A1.016,1.016,0,1,0,4.064,3.048,1.006,1.006,0,0,0,3.048,2.032Zm10.16,0a1.016,1.016,0,1,0,1.016,1.016A1.006,1.006,0,0,0,13.208,2.032ZM8.128,4.064a4.064,4.064,0,1,0,4.064,4.064A4.076,4.076,0,0,0,8.128,4.064ZM1.016,7.112a1.016,1.016,0,0,0,0,2.032,1.016,1.016,0,0,0,0-2.032Zm14.224,0a1.016,1.016,0,1,0,1.016,1.016A1.006,1.006,0,0,0,15.24,7.112ZM3.048,12.192a1.016,1.016,0,1,0,1.016,1.016A1.006,1.006,0,0,0,3.048,12.192Zm10.16,0a1.016,1.016,0,1,0,1.016,1.016A1.006,1.006,0,0,0,13.208,12.192Zm-5.08,2.032A1.016,1.016,0,1,0,9.144,15.24,1.006,1.006,0,0,0,8.128,14.224Z"/>
</svg>
